<svg width="558" height="122" viewBox="0 0 558 122" fill="none" xmlns="http://www.w3.org/2000/svg">
<g filter="url(#filter0_d_1_4)">
<path d="M34.2143 102.808C29.4143 102.808 25.2543 101.816 21.7343 99.832C18.1503 97.848 15.3983 95.224 13.4783 91.96C11.5583 88.76 10.5983 85.368 10.5983 81.784C10.5983 77.624 11.6863 73.976 13.8623 70.84C16.0383 67.64 18.9183 64.952 22.5023 62.776C26.0863 60.536 29.9903 58.872 34.2143 57.784C38.5023 56.632 42.7263 56.056 46.8863 56.056C49.1263 56.056 51.6543 56.344 54.4703 56.92C57.2863 57.432 59.9103 58.296 62.3423 59.512C64.8383 60.728 66.6623 62.36 67.8143 64.408C68.0063 64.664 68.0063 65.176 67.8143 65.944C67.6223 66.648 67.3023 67.32 66.8543 67.96C66.4063 68.536 65.7983 68.824 65.0303 68.824C64.3263 68.824 63.5263 68.44 62.6303 67.672C60.9023 66.136 59.0463 65.08 57.0623 64.504C55.1423 63.928 53.0623 63.64 50.8223 63.64C47.3663 63.64 43.9103 64.024 40.4543 64.792C36.9983 65.56 33.7983 66.712 30.8543 68.248C27.9743 69.784 25.6703 71.704 23.9423 74.008C22.2143 76.248 21.3503 78.872 21.3503 81.88C21.3503 84.056 21.9263 86.104 23.0783 88.024C24.2303 89.944 25.8623 91.48 27.9743 92.632C30.0863 93.784 32.6143 94.36 35.5583 94.36C39.4623 94.36 43.9743 93.048 49.0943 90.424C54.2143 87.864 59.7183 83.416 65.6063 77.08C73.7983 68.312 81.3503 58.968 88.2623 49.048C95.1743 39.064 101.894 29.048 108.422 19C106.438 17.912 103.974 16.952 101.03 16.12C98.0863 15.224 95.2063 14.776 92.3903 14.776C87.8463 14.776 84.3263 16.12 81.8303 18.808C79.3983 21.496 78.1823 25.112 78.1823 29.656C78.1823 30.872 77.8623 31.8 77.2223 32.44C76.6463 33.08 75.9423 33.4 75.1103 33.4C74.2143 33.4 73.3503 32.92 72.5183 31.96C71.7503 31 71.3663 29.432 71.3663 27.256C71.3663 24.184 71.9103 21.4 72.9983 18.904C74.0863 16.408 75.2703 14.392 76.5503 12.856C78.5983 10.488 81.3183 8.792 84.7103 7.768C88.1023 6.744 91.7183 6.232 95.5583 6.232C99.1423 6.232 102.694 6.616 106.214 7.384C109.734 8.088 112.934 9.112 115.814 10.456C118.758 11.736 121.094 13.208 122.822 14.872C124.614 16.536 125.51 18.328 125.51 20.248C125.51 20.504 125.478 20.76 125.414 21.016C125.414 21.208 125.382 21.432 125.318 21.688C124.998 22.904 124.486 23.768 123.782 24.28C123.078 24.728 122.278 24.952 121.382 24.952C120.358 24.952 119.302 24.728 118.214 24.28C117.126 23.768 116.166 23.192 115.334 22.552C115.078 22.36 114.95 22.136 114.95 21.88C114.95 21.496 115.11 21.176 115.43 20.92C115.814 20.664 116.166 20.696 116.486 21.016C117.062 21.464 117.798 21.944 118.694 22.456C119.59 22.904 120.454 23.128 121.286 23.128C121.798 23.128 122.246 23 122.63 22.744C123.014 22.424 123.302 21.912 123.494 21.208C123.558 21.08 123.59 20.92 123.59 20.728C123.59 20.536 123.59 20.376 123.59 20.248C123.59 18.712 122.758 17.24 121.094 15.832C119.43 14.36 117.19 13.048 114.374 11.896C111.622 10.68 108.582 9.752 105.254 9.112C101.926 8.408 98.5983 8.056 95.2703 8.056C91.7503 8.056 88.4543 8.536 85.3823 9.496C82.3743 10.392 79.9423 11.896 78.0863 14.008C76.8703 15.416 75.7503 17.272 74.7263 19.576C73.7663 21.88 73.2863 24.44 73.2863 27.256C73.2863 28.728 73.4783 29.816 73.8623 30.52C74.2463 31.224 74.6623 31.576 75.1103 31.576C75.8783 31.576 76.2623 30.936 76.2623 29.656C76.2623 24.664 77.6703 20.632 80.4863 17.56C83.3023 14.424 87.2703 12.856 92.3903 12.856C95.6543 12.856 98.9183 13.368 102.182 14.392C105.51 15.416 108.198 16.536 110.246 17.752C110.822 18.072 110.918 18.552 110.534 19.192C110.022 19.96 109.062 21.464 107.654 23.704C106.246 25.88 104.454 28.6 102.278 31.864C100.166 35.064 97.7663 38.616 95.0783 42.52C92.4543 46.36 89.5743 50.392 86.4383 54.616C83.3663 58.776 80.1663 62.904 76.8383 67C73.5743 71.032 70.2783 74.84 66.9503 78.424C60.8703 85.016 55.1423 89.624 49.7663 92.248C44.3903 94.936 39.6223 96.28 35.4623 96.28C32.1983 96.28 29.3503 95.608 26.9183 94.264C24.5503 92.92 22.7263 91.128 21.4463 88.888C20.1023 86.712 19.4303 84.376 19.4303 81.88C19.4303 78.488 20.3583 75.544 22.2143 73.048C24.0703 70.552 26.5343 68.472 29.6063 66.808C32.7423 65.144 36.1663 63.896 39.8783 63.064C43.5903 62.232 47.2703 61.816 50.9183 61.816C53.3503 61.816 55.6543 62.136 57.8303 62.776C60.0063 63.352 62.0543 64.504 63.9743 66.232C64.3583 66.616 64.6143 66.84 64.7423 66.904C64.9983 66.904 65.2543 66.712 65.5103 66.328C65.7663 65.944 65.9263 65.624 65.9903 65.368L66.0863 65.272C65.2543 63.864 64.0383 62.712 62.4383 61.816C60.9023 60.856 59.2063 60.12 57.3503 59.608C55.4943 59.032 53.6703 58.648 51.8783 58.456C50.1503 58.2 48.6463 58.072 47.3663 58.072C43.4623 58.072 39.4623 58.584 35.3663 59.608C31.3343 60.632 27.5903 62.168 24.1343 64.216C20.6783 66.2 17.8943 68.664 15.7823 71.608C13.6063 74.552 12.5183 77.976 12.5183 81.88C12.5183 85.144 13.4143 88.216 15.2063 91.096C16.9343 93.976 19.4303 96.312 22.6943 98.104C25.9583 99.896 29.7983 100.792 34.2143 100.792C39.1423 100.792 44.6783 99.416 50.8223 96.664C56.9663 93.912 63.5263 89.24 70.5023 82.648C75.5583 77.848 80.5503 72.376 85.4783 66.232C90.4063 60.024 95.1743 53.432 99.7823 46.456C104.39 39.48 108.71 32.472 112.742 25.432C112.934 25.112 113.222 24.952 113.606 24.952C113.926 24.952 114.214 25.112 114.47 25.432C114.726 25.688 114.726 26.008 114.47 26.392C110.438 33.432 106.086 40.472 101.414 47.512C96.8063 54.488 92.0063 61.112 87.0143 67.384C82.0223 73.592 76.9663 79.128 71.8463 83.992C64.6783 90.776 57.8943 95.608 51.4943 98.488C45.0943 101.368 39.3343 102.808 34.2143 102.808ZM121.057 64.216C119.905 64.216 118.913 63.96 118.081 63.448C117.697 63.256 117.505 63 117.505 62.68C117.505 62.36 117.633 62.104 117.889 61.912C118.209 61.656 118.561 61.624 118.945 61.816C119.713 62.136 120.417 62.296 121.057 62.296C122.401 62.296 123.873 61.912 125.473 61.144C127.073 60.312 128.609 59.256 130.081 57.976C131.553 56.696 132.737 55.32 133.633 53.848C134.593 52.376 135.073 50.968 135.073 49.624C135.073 47 133.729 45.688 131.041 45.688C128.033 45.688 125.217 46.488 122.593 48.088C120.033 49.624 117.665 51.576 115.489 53.944C113.377 56.248 111.489 58.616 109.825 61.048C109.633 61.368 109.377 61.528 109.057 61.528C108.737 61.528 108.481 61.368 108.289 61.048C108.033 60.728 108.033 60.376 108.289 59.992C109.953 57.56 111.905 55.096 114.145 52.6C116.385 50.104 118.913 48.024 121.729 46.36C124.609 44.632 127.713 43.768 131.041 43.768C132.769 43.768 134.177 44.28 135.265 45.304C136.417 46.328 136.993 47.768 136.993 49.624C136.993 51.352 136.449 53.08 135.361 54.808C134.337 56.472 132.993 58.04 131.329 59.512C129.729 60.92 128.001 62.072 126.145 62.968C124.289 63.8 122.593 64.216 121.057 64.216ZM118.849 73.144C117.121 73.144 115.521 72.696 114.049 71.8C112.641 70.904 111.937 69.368 111.937 67.192C111.937 65.4 112.577 63.48 113.857 61.432C115.201 59.384 116.833 57.432 118.753 55.576C120.737 53.656 122.753 51.992 124.801 50.584C126.849 49.176 128.609 48.248 130.081 47.8C130.145 47.8 130.177 47.8 130.177 47.8C130.241 47.736 130.305 47.704 130.369 47.704C131.009 47.704 131.329 48.056 131.329 48.76C131.329 49.144 131.105 49.432 130.657 49.624C129.249 50.072 127.585 50.968 125.665 52.312C123.809 53.656 121.953 55.224 120.097 57.016C118.305 58.744 116.801 60.504 115.585 62.296C114.433 64.088 113.857 65.72 113.857 67.192C113.857 68.6 114.305 69.624 115.201 70.264C116.161 70.904 117.377 71.224 118.849 71.224C122.625 71.224 126.433 70.232 130.273 68.248C134.177 66.2 137.505 63.384 140.257 59.8C140.449 59.544 140.673 59.416 140.929 59.416C141.313 59.416 141.601 59.608 141.793 59.992C142.049 60.312 142.017 60.664 141.697 61.048C138.817 64.76 135.297 67.704 131.137 69.88C127.041 72.056 122.945 73.144 118.849 73.144ZM118.369 78.904C116.705 78.904 115.009 78.648 113.281 78.136C111.553 77.624 110.113 76.792 108.961 75.64C107.745 74.424 107.137 72.824 107.137 70.84C107.137 70.136 107.457 69.784 108.097 69.784C108.737 69.784 109.057 70.136 109.057 70.84C109.057 72.056 109.281 73.016 109.729 73.72C110.241 74.424 111.105 75.064 112.321 75.64C113.281 76.088 114.305 76.44 115.393 76.696C116.545 76.888 117.537 76.984 118.369 76.984C120.737 76.984 123.041 76.536 125.281 75.64C127.585 74.744 129.697 73.592 131.617 72.184C131.745 72.056 131.937 71.992 132.193 71.992C132.833 71.992 133.153 72.312 133.153 72.952C133.153 73.272 133.025 73.528 132.769 73.72C130.721 75.256 128.449 76.504 125.953 77.464C123.521 78.424 120.993 78.904 118.369 78.904ZM173.477 62.008C173.093 62.008 172.773 61.848 172.517 61.528C172.325 61.208 172.357 60.856 172.613 60.472C174.533 57.656 175.493 54.936 175.493 52.312C175.493 50.456 174.917 48.952 173.765 47.8C172.677 46.584 171.013 45.976 168.773 45.976C165.445 45.976 162.181 47.448 158.981 50.392C155.845 53.272 152.613 56.888 149.285 61.24C149.093 61.432 148.901 61.528 148.709 61.528C148.389 61.528 148.133 61.336 147.941 60.952C147.685 60.568 147.685 60.184 147.941 59.8C150.117 56.92 152.293 54.296 154.469 51.928C156.645 49.56 158.885 47.672 161.189 46.264C163.557 44.856 166.021 44.152 168.581 44.152C171.781 44.152 174.053 44.92 175.397 46.456C176.741 47.992 177.413 49.848 177.413 52.024C177.413 53.624 177.125 55.256 176.549 56.92C175.973 58.584 175.173 60.152 174.149 61.624C173.957 61.88 173.733 62.008 173.477 62.008ZM156.197 73.912C154.853 73.912 153.797 73.464 153.029 72.568C152.325 71.608 151.973 70.392 151.973 68.92C151.973 67 152.549 64.888 153.701 62.584C154.853 60.28 156.325 58.104 158.117 56.056C159.973 53.944 161.893 52.216 163.877 50.872C165.861 49.528 167.653 48.856 169.253 48.856C170.149 48.856 170.597 49.176 170.597 49.816C170.597 50.072 170.501 50.328 170.309 50.584C170.117 50.776 169.861 50.84 169.541 50.776C168.197 50.648 166.629 51.192 164.837 52.408C163.109 53.624 161.413 55.192 159.749 57.112C158.085 59.032 156.677 61.08 155.525 63.256C154.437 65.368 153.893 67.288 153.893 69.016C153.893 69.848 154.053 70.552 154.373 71.128C154.693 71.704 155.301 71.992 156.197 71.992C157.221 71.992 158.309 71.672 159.461 71.032C160.613 70.328 161.669 69.496 162.629 68.536C163.589 67.576 164.293 66.68 164.741 65.848C164.933 65.528 165.189 65.368 165.509 65.368C165.829 65.368 166.117 65.528 166.373 65.848C166.629 66.104 166.629 66.424 166.373 66.808C165.797 67.768 164.965 68.824 163.877 69.976C162.789 71.064 161.573 71.992 160.229 72.76C158.885 73.528 157.541 73.912 156.197 73.912ZM172.325 66.232C170.213 66.232 168.389 65.592 166.853 64.312C165.317 63.032 164.549 61.304 164.549 59.128C164.549 58.36 164.645 57.56 164.837 56.728C165.093 55.832 165.445 54.904 165.893 53.944C166.085 53.56 166.373 53.368 166.757 53.368C167.077 53.368 167.333 53.496 167.525 53.752C167.781 54.008 167.813 54.328 167.621 54.712C167.237 55.48 166.949 56.216 166.757 56.92C166.629 57.624 166.565 58.296 166.565 58.936C166.565 60.664 167.141 62.008 168.293 62.968C169.445 63.864 170.821 64.312 172.421 64.312C173.829 64.312 175.269 63.96 176.741 63.256C178.213 62.552 179.557 61.432 180.773 59.896C180.965 59.64 181.189 59.512 181.445 59.512C181.765 59.512 182.053 59.704 182.309 60.088C182.565 60.408 182.565 60.728 182.309 61.048C180.837 62.84 179.205 64.152 177.413 64.984C175.685 65.816 173.989 66.232 172.325 66.232ZM156.005 79.96C153.253 79.96 150.949 79.064 149.093 77.272C147.237 75.416 146.437 73.24 146.693 70.744C146.693 70.104 147.013 69.784 147.653 69.784C147.909 69.784 148.165 69.912 148.421 70.168C148.613 70.36 148.677 70.616 148.613 70.936C148.485 72.6 149.125 74.232 150.533 75.832C152.005 77.368 153.861 78.136 156.101 78.136C157.573 78.136 159.141 77.688 160.805 76.792C162.469 75.896 164.133 74.392 165.797 72.28C165.797 72.28 165.989 72.024 166.373 71.512C166.821 71 167.301 70.456 167.813 69.88C168.325 69.24 168.677 68.728 168.869 68.344C169.061 67.96 169.317 67.768 169.637 67.768C169.957 67.768 170.213 67.928 170.405 68.248C170.661 68.504 170.693 68.824 170.501 69.208C170.117 69.976 169.605 70.712 168.965 71.416C168.325 72.12 167.749 72.824 167.237 73.528C165.445 75.832 163.557 77.496 161.573 78.52C159.653 79.48 157.797 79.96 156.005 79.96ZM189.199 61.528C188.879 61.528 188.623 61.336 188.431 60.952C188.175 60.568 188.175 60.216 188.431 59.896C190.415 57.656 192.111 55.672 193.519 53.944C194.991 52.152 196.367 50.36 197.647 48.568C198.991 46.776 200.431 44.792 201.967 42.616C202.671 41.656 203.471 40.984 204.367 40.6C205.263 40.152 206.127 39.928 206.959 39.928C208.303 39.928 209.455 40.312 210.415 41.08C211.439 41.848 211.951 42.712 211.951 43.672C211.951 44.248 211.727 44.792 211.279 45.304C211.087 45.496 210.863 45.592 210.607 45.592C210.287 45.592 209.999 45.432 209.743 45.112C209.551 44.728 209.615 44.344 209.935 43.96C209.999 43.896 210.031 43.768 210.031 43.576C210.031 43.384 209.935 43.16 209.743 42.904C209.551 42.648 209.103 42.392 208.399 42.136C207.951 41.944 207.471 41.848 206.959 41.848C206.383 41.848 205.775 42.008 205.135 42.328C204.559 42.584 204.015 43.064 203.503 43.768C201.903 45.944 200.431 47.928 199.087 49.72C197.807 51.512 196.463 53.304 195.055 55.096C193.647 56.888 191.951 58.904 189.967 61.144C189.775 61.4 189.519 61.528 189.199 61.528ZM222.703 72.376C221.679 72.376 220.719 72.152 219.823 71.704C218.991 71.192 218.575 70.456 218.575 69.496C218.575 68.856 218.735 68.248 219.055 67.672C219.503 66.84 220.207 65.592 221.167 63.928C222.127 62.2 223.119 60.408 224.143 58.552C225.167 56.632 226.031 54.872 226.735 53.272C227.439 51.608 227.791 50.392 227.791 49.624C227.791 48.152 227.151 47.032 225.871 46.264C224.655 45.496 223.247 45.112 221.647 45.112C219.151 45.112 216.815 45.816 214.639 47.224C212.463 48.568 210.479 50.2 208.687 52.12C206.895 54.04 205.263 55.896 203.791 57.688C203.599 57.944 203.343 58.072 203.023 58.072C202.703 58.072 202.415 57.912 202.159 57.592C201.967 57.208 201.999 56.856 202.255 56.536C203.919 54.552 205.711 52.536 207.631 50.488C209.551 48.44 211.663 46.712 213.967 45.304C216.335 43.896 218.895 43.192 221.647 43.192C222.799 43.192 223.983 43.416 225.199 43.864C226.479 44.248 227.535 44.92 228.367 45.88C229.263 46.84 229.711 48.088 229.711 49.624C229.711 50.584 229.327 51.928 228.559 53.656C227.855 55.32 226.991 57.144 225.967 59.128C224.943 61.048 223.951 62.872 222.991 64.6C222.031 66.328 221.295 67.672 220.783 68.632C220.591 68.888 220.495 69.144 220.495 69.4C220.495 69.848 220.751 70.136 221.263 70.264C221.775 70.392 222.255 70.456 222.703 70.456C224.175 70.456 225.711 69.816 227.311 68.536C228.911 67.256 230.415 65.784 231.823 64.12C233.231 62.392 234.319 60.984 235.087 59.896C235.279 59.64 235.503 59.512 235.759 59.512C236.079 59.512 236.367 59.672 236.623 59.992C236.943 60.312 236.943 60.664 236.623 61.048C235.727 62.328 234.511 63.864 232.975 65.656C231.503 67.448 229.871 69.016 228.079 70.36C226.287 71.704 224.495 72.376 222.703 72.376ZM192.367 79.288C191.023 79.288 190.031 78.84 189.391 77.944C188.815 77.048 188.527 76.088 188.527 75.064C188.527 74.232 188.879 73.08 189.583 71.608C190.287 70.136 191.119 68.568 192.079 66.904C193.103 65.24 194.063 63.672 194.959 62.2C195.855 60.728 196.527 59.544 196.975 58.648C197.167 58.264 197.455 58.072 197.839 58.072C198.159 58.072 198.415 58.2 198.607 58.456C198.863 58.712 198.895 59.032 198.703 59.416C198.319 60.184 197.679 61.304 196.783 62.776C195.951 64.248 195.023 65.816 193.999 67.48C193.039 69.144 192.207 70.68 191.503 72.088C190.799 73.432 190.447 74.424 190.447 75.064C190.447 76.6 191.087 77.368 192.367 77.368C193.647 77.368 194.799 76.792 195.823 75.64C196.847 74.424 197.871 72.856 198.895 70.936C199.919 69.016 201.071 66.936 202.351 64.696C203.631 62.456 205.135 60.248 206.863 58.072C208.591 55.832 210.671 53.848 213.103 52.12C215.535 50.328 218.447 49.016 221.839 48.184H222.127C222.767 48.184 223.087 48.504 223.087 49.144C223.087 49.592 222.831 49.88 222.319 50.008C219.055 50.84 216.239 52.12 213.871 53.848C211.567 55.576 209.583 57.56 207.919 59.8C206.255 61.976 204.783 64.216 203.503 66.52C202.287 68.824 201.135 70.936 200.047 72.856C198.959 74.776 197.807 76.344 196.591 77.56C195.375 78.712 193.967 79.288 192.367 79.288ZM217.807 79.384C215.823 79.384 214.063 78.776 212.527 77.56C211.055 76.344 210.319 74.584 210.319 72.28C210.319 72.024 210.319 71.8 210.319 71.608C210.319 71.352 210.351 71.096 210.415 70.84C210.607 69.368 211.087 67.704 211.855 65.848C212.687 63.992 213.615 62.168 214.639 60.376C215.727 58.584 216.687 57.08 217.519 55.864C217.711 55.544 217.967 55.384 218.287 55.384C218.607 55.384 218.863 55.544 219.055 55.864C219.311 56.184 219.311 56.568 219.055 57.016C219.055 57.016 218.735 57.496 218.095 58.456C217.455 59.352 216.751 60.536 215.983 62.008C215.023 63.736 214.159 65.528 213.391 67.384C212.623 69.24 212.239 70.84 212.239 72.184C212.239 73.912 212.751 75.224 213.775 76.12C214.863 77.016 216.207 77.464 217.807 77.464C219.855 77.464 221.871 77.048 223.855 76.216C225.839 75.384 227.631 74.36 229.231 73.144C229.359 73.016 229.551 72.952 229.807 72.952C230.447 72.952 230.767 73.272 230.767 73.912C230.767 74.232 230.639 74.488 230.383 74.68C228.591 76.024 226.639 77.144 224.527 78.04C222.415 78.936 220.175 79.384 217.807 79.384ZM252.782 73.336C251.246 73.336 250.222 72.728 249.71 71.512C249.262 70.232 249.038 69.176 249.038 68.344C249.038 66.744 249.582 64.824 250.67 62.584C251.822 60.344 253.294 58.136 255.086 55.96C256.878 53.784 258.798 51.992 260.846 50.584C262.894 49.112 264.814 48.376 266.606 48.376C267.374 48.376 267.758 48.696 267.758 49.336C267.758 49.592 267.662 49.848 267.47 50.104C267.278 50.296 267.022 50.36 266.702 50.296C265.294 50.232 263.694 50.84 261.902 52.12C260.11 53.4 258.382 55.032 256.718 57.016C255.054 59 253.678 61.016 252.59 63.064C251.502 65.112 250.958 66.872 250.958 68.344C250.958 69.24 251.118 69.976 251.438 70.552C251.758 71.128 252.206 71.416 252.782 71.416C253.742 71.416 254.83 70.744 256.046 69.4C257.262 68.056 258.606 66.328 260.078 64.216C261.55 62.04 263.086 59.8 264.686 57.496C266.35 55 268.014 52.632 269.678 50.392C271.406 48.088 273.07 46.232 274.67 44.824C276.334 43.352 277.902 42.616 279.374 42.616C280.206 42.616 280.974 42.872 281.678 43.384C282.382 43.896 282.734 44.696 282.734 45.784C282.734 45.912 282.542 46.616 282.158 47.896C281.774 49.112 281.294 50.616 280.718 52.408C280.206 54.2 279.662 55.992 279.086 57.784C278.51 59.512 277.998 61.048 277.55 62.392C277.166 63.672 276.91 64.44 276.782 64.696C276.59 65.08 276.334 65.272 276.014 65.272C275.694 65.272 275.406 65.144 275.15 64.888C274.958 64.632 274.926 64.312 275.054 63.928C275.182 63.672 275.438 62.904 275.822 61.624C276.27 60.344 276.75 58.84 277.262 57.112C277.838 55.384 278.382 53.656 278.894 51.928C279.47 50.2 279.918 48.76 280.238 47.608C280.622 46.456 280.814 45.848 280.814 45.784C280.814 44.952 280.334 44.536 279.374 44.536C278.542 44.536 277.71 44.856 276.878 45.496C275.278 46.52 273.55 48.312 271.694 50.872C269.838 53.368 267.982 56.024 266.126 58.84C264.526 61.208 262.926 63.512 261.326 65.752C259.79 67.992 258.286 69.816 256.814 71.224C255.342 72.632 253.998 73.336 252.782 73.336ZM243.278 61.624C242.958 61.624 242.702 61.496 242.51 61.24C242.318 60.92 242.35 60.568 242.606 60.184C244.974 57.368 247.374 54.712 249.806 52.216C252.238 49.72 254.766 47.672 257.39 46.072C260.078 44.472 262.926 43.672 265.934 43.672C266.83 43.672 267.63 43.736 268.334 43.864C269.102 43.992 269.742 44.248 270.254 44.632C270.51 44.824 270.638 45.08 270.638 45.4C270.638 45.72 270.478 46.008 270.158 46.264C269.838 46.456 269.486 46.424 269.102 46.168C268.654 45.784 267.598 45.592 265.934 45.592C263.31 45.592 260.782 46.328 258.35 47.8C255.918 49.208 253.55 51.096 251.246 53.464C248.942 55.832 246.606 58.392 244.238 61.144C243.982 61.464 243.662 61.624 243.278 61.624ZM239.726 101.176C238.894 101.24 238.03 101.016 237.134 100.504C236.174 100.056 235.694 99.224 235.694 98.008C235.694 96.6 236.366 95.096 237.71 93.496C239.054 91.96 240.75 90.424 242.798 88.888C244.782 87.416 246.798 86.04 248.846 84.76C250.894 83.48 252.622 82.392 254.03 81.496C254.286 81.368 254.446 81.304 254.51 81.304C254.83 81.304 255.054 81.4 255.182 81.592C255.374 81.848 255.47 82.104 255.47 82.36C255.47 82.68 255.342 82.936 255.086 83.128C253.934 83.896 252.43 84.856 250.574 86.008C248.718 87.16 246.862 88.376 245.006 89.656C243.15 91 241.55 92.344 240.206 93.688C238.798 95.032 237.934 96.28 237.614 97.432C237.614 97.496 237.614 97.56 237.614 97.624C237.55 97.752 237.518 97.848 237.518 97.912C237.518 98.808 238.126 99.256 239.342 99.256C241.582 99.256 244.014 98.328 246.638 96.472C249.326 94.616 251.982 92.12 254.606 88.984C257.23 85.912 259.694 82.52 261.998 78.808C264.302 75.032 266.254 71.256 267.854 67.48C269.454 63.704 270.51 60.248 271.022 57.112C271.086 56.6 271.406 56.344 271.982 56.344C272.238 56.344 272.462 56.44 272.654 56.632C272.91 56.824 273.006 57.112 272.942 57.496C272.43 60.632 271.374 64.12 269.774 67.96C268.174 71.8 266.19 75.64 263.822 79.48C261.454 83.32 258.894 86.84 256.142 90.04C253.39 93.304 250.606 95.928 247.79 97.912C244.974 99.96 242.286 101.048 239.726 101.176ZM238.958 107.896C237.422 107.896 235.982 107.448 234.638 106.552C233.23 105.72 232.654 104.28 232.91 102.232C232.91 101.656 233.198 101.368 233.774 101.368C234.03 101.368 234.286 101.464 234.542 101.656C234.734 101.848 234.798 102.104 234.734 102.424C234.606 103.64 234.958 104.536 235.79 105.112C236.558 105.688 237.614 105.976 238.958 105.976C242.03 105.976 244.974 105.208 247.79 103.672C250.67 102.2 253.39 100.184 255.95 97.624C258.574 95.128 260.942 92.344 263.054 89.272C265.23 86.2 267.15 83.064 268.814 79.864C270.542 76.728 271.918 73.752 272.942 70.936C273.198 70.232 273.358 69.784 273.422 69.592C273.55 69.336 273.966 69.048 274.67 68.728C276.078 68.088 277.838 67.128 279.95 65.848C282.062 64.568 284.238 62.488 286.478 59.608C286.67 59.352 286.926 59.224 287.246 59.224C287.566 59.224 287.822 59.416 288.014 59.8C288.27 60.12 288.27 60.44 288.014 60.76C286.094 63.32 284.046 65.336 281.87 66.808C279.694 68.216 277.39 69.56 274.958 70.84C273.934 73.592 272.59 76.632 270.926 79.96C269.262 83.288 267.278 86.584 264.974 89.848C262.734 93.112 260.238 96.088 257.486 98.776C254.798 101.528 251.886 103.736 248.75 105.4C245.614 107.064 242.35 107.896 238.958 107.896ZM250.19 79.576C247.822 79.576 245.838 78.84 244.238 77.368C242.638 75.896 241.838 73.88 241.838 71.32C241.838 71 241.87 70.648 241.934 70.264C241.934 69.88 241.966 69.496 242.03 69.112C242.094 68.6 242.382 68.344 242.894 68.344C243.598 68.344 243.95 68.664 243.95 69.304C243.95 69.624 243.918 69.976 243.854 70.36C243.79 70.68 243.758 70.968 243.758 71.224C243.758 73.208 244.366 74.776 245.582 75.928C246.798 77.08 248.302 77.656 250.094 77.656C252.078 77.656 254.254 76.952 256.622 75.544C258.99 74.136 261.198 71.8 263.246 68.536C263.438 68.216 263.694 68.056 264.014 68.056C264.334 68.056 264.59 68.216 264.782 68.536C265.038 68.792 265.038 69.112 264.782 69.496C262.606 72.952 260.206 75.512 257.582 77.176C255.022 78.776 252.558 79.576 250.19 79.576ZM335.575 102.808C330.775 102.808 326.615 101.816 323.095 99.832C319.511 97.848 316.759 95.224 314.839 91.96C312.919 88.76 311.959 85.368 311.959 81.784C311.959 77.624 313.047 73.976 315.223 70.84C317.399 67.64 320.279 64.952 323.863 62.776C327.447 60.536 331.351 58.872 335.575 57.784C339.863 56.632 344.087 56.056 348.247 56.056C350.487 56.056 353.015 56.344 355.831 56.92C358.647 57.432 361.271 58.296 363.703 59.512C366.199 60.728 368.023 62.36 369.175 64.408C369.367 64.664 369.367 65.176 369.175 65.944C368.983 66.648 368.663 67.32 368.215 67.96C367.767 68.536 367.159 68.824 366.391 68.824C365.687 68.824 364.887 68.44 363.991 67.672C362.263 66.136 360.407 65.08 358.423 64.504C356.503 63.928 354.423 63.64 352.183 63.64C348.727 63.64 345.271 64.024 341.815 64.792C338.359 65.56 335.159 66.712 332.215 68.248C329.335 69.784 327.031 71.704 325.303 74.008C323.575 76.248 322.711 78.872 322.711 81.88C322.711 84.056 323.287 86.104 324.439 88.024C325.591 89.944 327.223 91.48 329.335 92.632C331.447 93.784 333.975 94.36 336.919 94.36C340.823 94.36 345.335 93.048 350.455 90.424C355.575 87.864 361.079 83.416 366.967 77.08C375.159 68.312 382.711 58.968 389.623 49.048C396.535 39.064 403.255 29.048 409.783 19C407.799 17.912 405.335 16.952 402.391 16.12C399.447 15.224 396.567 14.776 393.751 14.776C389.207 14.776 385.687 16.12 383.191 18.808C380.759 21.496 379.543 25.112 379.543 29.656C379.543 30.872 379.223 31.8 378.583 32.44C378.007 33.08 377.303 33.4 376.471 33.4C375.575 33.4 374.711 32.92 373.879 31.96C373.111 31 372.727 29.432 372.727 27.256C372.727 24.184 373.271 21.4 374.359 18.904C375.447 16.408 376.631 14.392 377.911 12.856C379.959 10.488 382.679 8.792 386.071 7.768C389.463 6.744 393.079 6.232 396.919 6.232C400.503 6.232 404.055 6.616 407.575 7.384C411.095 8.088 414.295 9.112 417.175 10.456C420.119 11.736 422.455 13.208 424.183 14.872C425.975 16.536 426.871 18.328 426.871 20.248C426.871 20.504 426.839 20.76 426.775 21.016C426.775 21.208 426.743 21.432 426.679 21.688C426.359 22.904 425.847 23.768 425.143 24.28C424.439 24.728 423.639 24.952 422.743 24.952C421.719 24.952 420.663 24.728 419.575 24.28C418.487 23.768 417.527 23.192 416.695 22.552C416.439 22.36 416.311 22.136 416.311 21.88C416.311 21.496 416.471 21.176 416.791 20.92C417.175 20.664 417.527 20.696 417.847 21.016C418.423 21.464 419.159 21.944 420.055 22.456C420.951 22.904 421.815 23.128 422.647 23.128C423.159 23.128 423.607 23 423.991 22.744C424.375 22.424 424.663 21.912 424.855 21.208C424.919 21.08 424.951 20.92 424.951 20.728C424.951 20.536 424.951 20.376 424.951 20.248C424.951 18.712 424.119 17.24 422.455 15.832C420.791 14.36 418.551 13.048 415.735 11.896C412.983 10.68 409.943 9.752 406.615 9.112C403.287 8.408 399.959 8.056 396.631 8.056C393.111 8.056 389.815 8.536 386.743 9.496C383.735 10.392 381.303 11.896 379.447 14.008C378.231 15.416 377.111 17.272 376.087 19.576C375.127 21.88 374.647 24.44 374.647 27.256C374.647 28.728 374.839 29.816 375.223 30.52C375.607 31.224 376.023 31.576 376.471 31.576C377.239 31.576 377.623 30.936 377.623 29.656C377.623 24.664 379.031 20.632 381.847 17.56C384.663 14.424 388.631 12.856 393.751 12.856C397.015 12.856 400.279 13.368 403.543 14.392C406.871 15.416 409.559 16.536 411.607 17.752C412.183 18.072 412.279 18.552 411.895 19.192C411.383 19.96 410.423 21.464 409.015 23.704C407.607 25.88 405.815 28.6 403.639 31.864C401.527 35.064 399.127 38.616 396.439 42.52C393.815 46.36 390.935 50.392 387.799 54.616C384.727 58.776 381.527 62.904 378.199 67C374.935 71.032 371.639 74.84 368.311 78.424C362.231 85.016 356.503 89.624 351.127 92.248C345.751 94.936 340.983 96.28 336.823 96.28C333.559 96.28 330.711 95.608 328.279 94.264C325.911 92.92 324.087 91.128 322.807 88.888C321.463 86.712 320.791 84.376 320.791 81.88C320.791 78.488 321.719 75.544 323.575 73.048C325.431 70.552 327.895 68.472 330.967 66.808C334.103 65.144 337.527 63.896 341.239 63.064C344.951 62.232 348.631 61.816 352.279 61.816C354.711 61.816 357.015 62.136 359.191 62.776C361.367 63.352 363.415 64.504 365.335 66.232C365.719 66.616 365.975 66.84 366.103 66.904C366.359 66.904 366.615 66.712 366.871 66.328C367.127 65.944 367.287 65.624 367.351 65.368L367.447 65.272C366.615 63.864 365.399 62.712 363.799 61.816C362.263 60.856 360.567 60.12 358.711 59.608C356.855 59.032 355.031 58.648 353.239 58.456C351.511 58.2 350.007 58.072 348.727 58.072C344.823 58.072 340.823 58.584 336.727 59.608C332.695 60.632 328.951 62.168 325.495 64.216C322.039 66.2 319.255 68.664 317.143 71.608C314.967 74.552 313.879 77.976 313.879 81.88C313.879 85.144 314.775 88.216 316.567 91.096C318.295 93.976 320.791 96.312 324.055 98.104C327.319 99.896 331.159 100.792 335.575 100.792C340.503 100.792 346.039 99.416 352.183 96.664C358.327 93.912 364.887 89.24 371.863 82.648C376.919 77.848 381.911 72.376 386.839 66.232C391.767 60.024 396.535 53.432 401.143 46.456C405.751 39.48 410.071 32.472 414.103 25.432C414.295 25.112 414.583 24.952 414.967 24.952C415.287 24.952 415.575 25.112 415.831 25.432C416.087 25.688 416.087 26.008 415.831 26.392C411.799 33.432 407.447 40.472 402.775 47.512C398.167 54.488 393.367 61.112 388.375 67.384C383.383 73.592 378.327 79.128 373.207 83.992C366.039 90.776 359.255 95.608 352.855 98.488C346.455 101.368 340.695 102.808 335.575 102.808ZM436.819 40.408C435.283 40.408 433.971 39.864 432.883 38.776C431.795 37.688 431.251 36.376 431.251 34.84C431.251 33.24 431.795 31.896 432.883 30.808C433.971 29.72 435.283 29.176 436.819 29.176C438.419 29.176 439.763 29.72 440.851 30.808C441.939 31.896 442.483 33.24 442.483 34.84C442.483 36.376 441.939 37.688 440.851 38.776C439.763 39.864 438.419 40.408 436.819 40.408ZM436.819 38.488C437.907 38.488 438.803 38.136 439.507 37.432C440.211 36.728 440.563 35.864 440.563 34.84C440.563 33.752 440.211 32.856 439.507 32.152C438.803 31.448 437.907 31.096 436.819 31.096C435.795 31.096 434.931 31.448 434.227 32.152C433.523 32.856 433.171 33.752 433.171 34.84C433.171 35.864 433.523 36.728 434.227 37.432C434.931 38.136 435.795 38.488 436.819 38.488ZM423.859 73.624C422.643 73.624 421.779 73.176 421.267 72.28C420.819 71.384 420.595 70.392 420.595 69.304C420.595 68.408 420.819 67.128 421.267 65.464C421.715 63.8 422.323 62.008 423.091 60.088C423.923 58.104 424.851 56.28 425.875 54.616C426.899 52.888 427.955 51.512 429.043 50.488C429.619 49.912 430.227 49.4 430.867 48.952C431.507 48.056 431.827 47.224 431.827 46.456C431.827 45.496 431.379 44.76 430.483 44.248C429.651 43.672 428.723 43.384 427.699 43.384C426.611 43.384 425.779 43.64 425.203 44.152C424.307 44.984 423.347 45.976 422.323 47.128C421.363 48.216 420.339 49.496 419.251 50.968C418.099 52.44 416.883 54.04 415.603 55.768C414.323 57.432 412.851 59.224 411.187 61.144C410.995 61.4 410.739 61.528 410.419 61.528C410.099 61.528 409.843 61.336 409.651 60.952C409.395 60.568 409.395 60.216 409.651 59.896C411.315 58.04 412.787 56.248 414.067 54.52C415.411 52.792 416.627 51.224 417.715 49.816C418.867 48.344 419.923 47.032 420.883 45.88C421.907 44.664 422.931 43.608 423.955 42.712C424.915 41.816 426.099 41.368 427.507 41.368C429.171 41.368 430.675 41.944 432.019 43.096C433.363 44.184 434.035 45.464 434.035 46.936C434.035 48.216 433.363 49.4 432.019 50.488L431.539 50.872C430.899 51.448 430.227 52.056 429.523 52.696C428.883 53.336 428.339 54.04 427.891 54.808C427.187 56.28 426.387 57.912 425.491 59.704C424.659 61.432 423.923 63.16 423.283 64.888C422.707 66.616 422.419 68.152 422.419 69.496C422.419 70.968 423.027 71.704 424.243 71.704C424.819 71.704 425.523 71.544 426.355 71.224C428.339 70.392 430.387 69.08 432.499 67.288C434.611 65.496 436.883 63.032 439.315 59.896C439.507 59.64 439.731 59.512 439.987 59.512C440.371 59.512 440.691 59.704 440.947 60.088C441.203 60.408 441.171 60.728 440.851 61.048C438.867 63.608 437.011 65.688 435.283 67.288C433.619 68.888 431.667 70.328 429.427 71.608C428.211 72.312 427.155 72.824 426.259 73.144C425.363 73.464 424.563 73.624 423.859 73.624ZM423.379 79.48C420.243 79.48 417.779 78.392 415.987 76.216C414.259 74.04 413.523 71.352 413.779 68.152C413.843 67.192 414.131 65.848 414.643 64.12C415.155 62.328 415.795 60.536 416.563 58.744C417.395 56.888 418.227 55.384 419.059 54.232C419.251 53.976 419.507 53.848 419.827 53.848C420.147 53.848 420.435 54.008 420.691 54.328C420.947 54.648 420.915 55 420.595 55.384C419.827 56.408 419.059 57.784 418.291 59.512C417.587 61.24 416.979 62.936 416.467 64.6C416.019 66.264 415.763 67.512 415.699 68.344C415.507 70.712 416.083 72.856 417.427 74.776C418.771 76.696 420.787 77.656 423.475 77.656C425.139 77.656 427.091 77.176 429.331 76.216C431.571 75.192 434.003 73.496 436.627 71.128C436.755 71 436.947 70.936 437.203 70.936C437.651 70.936 437.971 71.16 438.163 71.608C438.419 71.992 438.355 72.344 437.971 72.664C435.219 75.096 432.595 76.856 430.099 77.944C427.667 78.968 425.427 79.48 423.379 79.48ZM447.724 61.528C447.404 61.528 447.148 61.336 446.956 60.952C446.7 60.568 446.7 60.216 446.956 59.896C448.94 57.656 450.636 55.672 452.044 53.944C453.516 52.152 454.892 50.36 456.172 48.568C457.516 46.776 458.956 44.792 460.492 42.616C461.196 41.656 461.996 40.984 462.892 40.6C463.788 40.152 464.652 39.928 465.484 39.928C466.828 39.928 467.98 40.312 468.94 41.08C469.964 41.848 470.476 42.712 470.476 43.672C470.476 44.248 470.252 44.792 469.804 45.304C469.612 45.496 469.388 45.592 469.132 45.592C468.812 45.592 468.524 45.432 468.268 45.112C468.076 44.728 468.14 44.344 468.46 43.96C468.524 43.896 468.556 43.768 468.556 43.576C468.556 43.384 468.46 43.16 468.268 42.904C468.076 42.648 467.628 42.392 466.924 42.136C466.476 41.944 465.996 41.848 465.484 41.848C464.908 41.848 464.3 42.008 463.66 42.328C463.084 42.584 462.54 43.064 462.028 43.768C460.428 45.944 458.956 47.928 457.612 49.72C456.332 51.512 454.988 53.304 453.58 55.096C452.172 56.888 450.476 58.904 448.492 61.144C448.3 61.4 448.044 61.528 447.724 61.528ZM481.228 72.376C480.204 72.376 479.244 72.152 478.348 71.704C477.516 71.192 477.1 70.456 477.1 69.496C477.1 68.856 477.26 68.248 477.58 67.672C478.028 66.84 478.732 65.592 479.692 63.928C480.652 62.2 481.644 60.408 482.668 58.552C483.692 56.632 484.556 54.872 485.26 53.272C485.964 51.608 486.316 50.392 486.316 49.624C486.316 48.152 485.676 47.032 484.396 46.264C483.18 45.496 481.772 45.112 480.172 45.112C477.676 45.112 475.34 45.816 473.164 47.224C470.988 48.568 469.004 50.2 467.212 52.12C465.42 54.04 463.788 55.896 462.316 57.688C462.124 57.944 461.868 58.072 461.548 58.072C461.228 58.072 460.94 57.912 460.684 57.592C460.492 57.208 460.524 56.856 460.78 56.536C462.444 54.552 464.236 52.536 466.156 50.488C468.076 48.44 470.188 46.712 472.492 45.304C474.86 43.896 477.42 43.192 480.172 43.192C481.324 43.192 482.508 43.416 483.724 43.864C485.004 44.248 486.06 44.92 486.892 45.88C487.788 46.84 488.236 48.088 488.236 49.624C488.236 50.584 487.852 51.928 487.084 53.656C486.38 55.32 485.516 57.144 484.492 59.128C483.468 61.048 482.476 62.872 481.516 64.6C480.556 66.328 479.82 67.672 479.308 68.632C479.116 68.888 479.02 69.144 479.02 69.4C479.02 69.848 479.276 70.136 479.788 70.264C480.3 70.392 480.78 70.456 481.228 70.456C482.7 70.456 484.236 69.816 485.836 68.536C487.436 67.256 488.94 65.784 490.348 64.12C491.756 62.392 492.844 60.984 493.612 59.896C493.804 59.64 494.028 59.512 494.284 59.512C494.604 59.512 494.892 59.672 495.148 59.992C495.468 60.312 495.468 60.664 495.148 61.048C494.252 62.328 493.036 63.864 491.5 65.656C490.028 67.448 488.396 69.016 486.604 70.36C484.812 71.704 483.02 72.376 481.228 72.376ZM450.892 79.288C449.548 79.288 448.556 78.84 447.916 77.944C447.34 77.048 447.052 76.088 447.052 75.064C447.052 74.232 447.404 73.08 448.108 71.608C448.812 70.136 449.644 68.568 450.604 66.904C451.628 65.24 452.588 63.672 453.484 62.2C454.38 60.728 455.052 59.544 455.5 58.648C455.692 58.264 455.98 58.072 456.364 58.072C456.684 58.072 456.94 58.2 457.132 58.456C457.388 58.712 457.42 59.032 457.228 59.416C456.844 60.184 456.204 61.304 455.308 62.776C454.476 64.248 453.548 65.816 452.524 67.48C451.564 69.144 450.732 70.68 450.028 72.088C449.324 73.432 448.972 74.424 448.972 75.064C448.972 76.6 449.612 77.368 450.892 77.368C452.172 77.368 453.324 76.792 454.348 75.64C455.372 74.424 456.396 72.856 457.42 70.936C458.444 69.016 459.596 66.936 460.876 64.696C462.156 62.456 463.66 60.248 465.388 58.072C467.116 55.832 469.196 53.848 471.628 52.12C474.06 50.328 476.972 49.016 480.364 48.184H480.652C481.292 48.184 481.612 48.504 481.612 49.144C481.612 49.592 481.356 49.88 480.844 50.008C477.58 50.84 474.764 52.12 472.396 53.848C470.092 55.576 468.108 57.56 466.444 59.8C464.78 61.976 463.308 64.216 462.028 66.52C460.812 68.824 459.66 70.936 458.572 72.856C457.484 74.776 456.332 76.344 455.116 77.56C453.9 78.712 452.492 79.288 450.892 79.288ZM476.332 79.384C474.348 79.384 472.588 78.776 471.052 77.56C469.58 76.344 468.844 74.584 468.844 72.28C468.844 72.024 468.844 71.8 468.844 71.608C468.844 71.352 468.876 71.096 468.94 70.84C469.132 69.368 469.612 67.704 470.38 65.848C471.212 63.992 472.14 62.168 473.164 60.376C474.252 58.584 475.212 57.08 476.044 55.864C476.236 55.544 476.492 55.384 476.812 55.384C477.132 55.384 477.388 55.544 477.58 55.864C477.836 56.184 477.836 56.568 477.58 57.016C477.58 57.016 477.26 57.496 476.62 58.456C475.98 59.352 475.276 60.536 474.508 62.008C473.548 63.736 472.684 65.528 471.916 67.384C471.148 69.24 470.764 70.84 470.764 72.184C470.764 73.912 471.276 75.224 472.3 76.12C473.388 77.016 474.732 77.464 476.332 77.464C478.38 77.464 480.396 77.048 482.38 76.216C484.364 75.384 486.156 74.36 487.756 73.144C487.884 73.016 488.076 72.952 488.332 72.952C488.972 72.952 489.292 73.272 489.292 73.912C489.292 74.232 489.164 74.488 488.908 74.68C487.116 76.024 485.164 77.144 483.052 78.04C480.94 78.936 478.7 79.384 476.332 79.384ZM509.387 73.336C507.851 73.336 506.827 72.728 506.315 71.512C505.867 70.232 505.643 69.176 505.643 68.344C505.643 66.744 506.187 64.856 507.275 62.68C508.363 60.504 509.771 58.36 511.499 56.248C513.227 54.136 515.083 52.376 517.067 50.968C519.051 49.56 520.939 48.856 522.731 48.856C523.627 48.856 524.075 49.176 524.075 49.816C524.075 50.072 523.979 50.328 523.787 50.584C523.595 50.776 523.339 50.84 523.019 50.776C521.611 50.648 520.011 51.224 518.219 52.504C516.491 53.72 514.795 55.32 513.131 57.304C511.531 59.224 510.187 61.176 509.099 63.16C508.075 65.144 507.563 66.872 507.563 68.344C507.563 69.24 507.723 69.976 508.043 70.552C508.363 71.128 508.811 71.416 509.387 71.416C510.475 71.416 511.723 70.776 513.131 69.496C514.603 68.152 516.107 66.488 517.643 64.504C519.179 62.456 520.651 60.344 522.059 58.168C523.531 55.928 524.811 53.912 525.899 52.12C527.051 50.264 527.915 48.888 528.491 47.992C529.707 46.2 530.923 44.952 532.139 44.248C533.355 43.48 534.475 43.096 535.499 43.096C536.651 43.096 537.579 43.448 538.283 44.152C539.051 44.856 539.435 45.752 539.435 46.84C539.435 47.8 539.083 48.824 538.379 49.912C537.867 50.68 537.035 51.96 535.883 53.752C534.731 55.48 533.547 57.368 532.331 59.416C531.115 61.4 530.091 63.224 529.259 64.888C528.363 66.808 527.915 68.344 527.915 69.496C527.915 70.776 528.555 71.416 529.835 71.416C530.987 71.416 532.267 71.032 533.675 70.264C535.147 69.496 536.619 68.504 538.091 67.288C539.563 66.072 540.939 64.824 542.219 63.544C543.499 62.2 544.555 60.984 545.387 59.896C545.579 59.64 545.803 59.512 546.059 59.512C546.443 59.512 546.731 59.704 546.923 60.088C547.179 60.408 547.179 60.728 546.923 61.048C546.091 62.264 544.939 63.576 543.467 64.984C542.059 66.392 540.523 67.736 538.859 69.016C537.195 70.296 535.531 71.352 533.867 72.184C532.203 72.952 530.731 73.336 529.451 73.336C528.235 73.336 527.339 72.984 526.763 72.28C526.251 71.576 525.995 70.68 525.995 69.592C525.995 68.248 526.379 66.712 527.147 64.984C527.979 63.192 529.003 61.24 530.219 59.128C531.499 56.952 532.747 54.936 533.963 53.08C535.243 51.16 536.203 49.72 536.843 48.76C537.291 48.12 537.515 47.48 537.515 46.84C537.515 45.624 536.875 45.016 535.595 45.016C534.891 45.016 534.027 45.336 533.003 45.976C532.043 46.616 531.051 47.672 530.027 49.144C528.619 51.256 527.051 53.688 525.323 56.44C523.659 59.192 521.963 61.784 520.235 64.216C518.507 66.584 516.715 68.696 514.859 70.552C513.067 72.408 511.243 73.336 509.387 73.336ZM502.091 61.528C501.771 61.528 501.515 61.368 501.323 61.048C501.067 60.728 501.067 60.376 501.323 59.992C502.411 58.456 503.659 56.792 505.067 55C506.539 53.144 508.171 51.416 509.963 49.816C511.755 48.152 513.675 46.808 515.723 45.784C517.771 44.696 519.915 44.152 522.155 44.152C522.859 44.152 523.563 44.248 524.267 44.44C524.971 44.568 525.643 44.76 526.283 45.016C526.667 45.208 526.859 45.496 526.859 45.88C526.859 46.136 526.731 46.392 526.475 46.648C526.219 46.84 525.899 46.872 525.515 46.744C525.515 46.744 525.419 46.712 525.227 46.648C525.035 46.584 524.779 46.52 524.459 46.456C524.139 46.328 523.787 46.232 523.403 46.168C523.019 46.104 522.603 46.072 522.155 46.072C519.531 46.072 517.035 46.872 514.667 48.472C512.299 50.072 510.091 52.024 508.043 54.328C506.059 56.632 504.331 58.872 502.859 61.048C502.667 61.368 502.411 61.528 502.091 61.528ZM526.379 79.48C523.499 79.48 521.419 78.712 520.139 77.176C518.923 75.576 518.315 73.848 518.315 71.992C518.315 70.456 518.699 68.984 519.467 67.576C519.659 67.256 519.947 67.096 520.331 67.096C520.651 67.096 520.907 67.256 521.099 67.576C521.355 67.832 521.387 68.152 521.195 68.536C520.555 69.688 520.235 70.84 520.235 71.992C520.235 73.4 520.715 74.68 521.675 75.832C522.635 76.984 524.203 77.56 526.379 77.56C528.811 77.56 531.115 77.048 533.291 76.024C535.531 74.936 537.643 73.656 539.627 72.184C539.755 72.056 539.947 71.992 540.203 71.992C540.843 71.992 541.163 72.312 541.163 72.952C541.163 73.272 541.035 73.528 540.779 73.72C538.731 75.256 536.523 76.6 534.155 77.752C531.787 78.904 529.195 79.48 526.379 79.48ZM508.043 79.384C505.931 79.384 504.043 78.68 502.379 77.272C500.779 75.864 500.043 73.688 500.171 70.744C500.171 70.168 500.491 69.88 501.131 69.88C501.387 69.88 501.643 69.976 501.899 70.168C502.091 70.296 502.155 70.52 502.091 70.84C502.027 73.144 502.603 74.84 503.819 75.928C505.035 76.952 506.443 77.464 508.043 77.464C509.323 77.464 510.603 77.176 511.883 76.6C513.163 75.96 514.219 75.064 515.051 73.912C515.243 73.656 515.499 73.528 515.819 73.528C516.139 73.528 516.427 73.688 516.683 74.008C516.939 74.328 516.907 74.68 516.587 75.064C515.563 76.472 514.283 77.56 512.747 78.328C511.211 79.032 509.643 79.384 508.043 79.384Z" fill="#00BDDE" class="svg-elem-1"></path>
</g>
<defs>
<filter id="filter0_d_1_4" x="0.598267" y="0.231995" width="556.709" height="121.664" filterUnits="userSpaceOnUse" color-interpolation-filters="sRGB">
<feFlood flood-opacity="0" result="BackgroundImageFix"></feFlood>
<feColorMatrix in="SourceAlpha" type="matrix" values="0 0 0 0 0 0 0 0 0 0 0 0 0 0 0 0 0 0 127 0" result="hardAlpha"></feColorMatrix>
<feOffset dy="4"></feOffset>
<feGaussianBlur stdDeviation="5"></feGaussianBlur>
<feComposite in2="hardAlpha" operator="out"></feComposite>
<feColorMatrix type="matrix" values="0 0 0 0 0 0 0 0 0 0.733333 0 0 0 0 1 0 0 0 0.97 0"></feColorMatrix>
<feBlend mode="normal" in2="BackgroundImageFix" result="effect1_dropShadow_1_4"></feBlend>
<feBlend mode="normal" in="SourceGraphic" in2="effect1_dropShadow_1_4" result="shape"></feBlend>
</filter>
</defs>
</svg>
